<?xml version="1.0" encoding="utf-8"?>
<!-- Generator: Adobe Illustrator 22.0.1, SVG Export Plug-In . SVG Version: 6.00 Build 0)  -->
<svg version="1.1" id="_x3C_Lag_x3E_" xmlns="http://www.w3.org/2000/svg" xmlns:xlink="http://www.w3.org/1999/xlink" x="0px"
	 y="0px" viewBox="0 0 565.5 66.7" style="enable-background:new 0 0 565.5 66.7;" xml:space="preserve">
<style type="text/css">
	.st0{fill:#FFFFFF;}
</style>
<path class="st0" d="M50.4,59.1l-2.2-5.9h-32l-2,5.9C11.8,65.8,11.8,66,0,66L21.6,8c2.8-7.4,2.9-7.4,10.6-7.4h7.4L64.7,66
	C53,66,53,66,50.4,59.1z M32.2,8L19.1,45.1h26.4L32.2,8z"/>
<path class="st0" d="M115.5,55.9c-3.8,6.5-10.1,10.8-20.9,10.8c-22.8,0-29.4-15.5-29.4-33.4c0-17.8,5.9-32.7,30.1-32.7h25.3
	c0,9.4,0,9.4-8.9,9.4H95.3c-18.6,0-18.6-0.8-18.6,23.3c0,13.4,3.6,24.1,18.6,24.1c18.3,0,18.3-0.1,18.3-20.1H92.4
	c-6.7,0-6.9,0-6.9-9.3h39.1V66C115.5,66,115.5,66,115.5,55.9z"/>
<path class="st0" d="M165.5,59l-16.9-19.2c-2.3-2.7-1.4-7.3,2.7-7.3h7.9c15,0,15,0,15-11.5c0-5.1-1.9-11.1-15.3-11.1h-12.5v30.4V66
	c-11.2,0-11.2,0-11.2-9.3V9.9c0-9.2,0-9.2,11.2-9.2h12c24.6,0,27.1,11.8,27.1,20.2c0,16-11.6,19.9-24.1,19.9L187.8,66
	C172.6,66,172.3,66.7,165.5,59z"/>
<path class="st0" d="M241.9,59.1l-2.2-5.9h-32l-2,5.9c-2.4,6.7-2.4,6.9-14.3,6.9L213.1,8c2.8-7.4,2.9-7.4,10.6-7.4h7.4L256.2,66
	C244.5,66,244.5,66,241.9,59.1z M223.7,8l-13.1,37.1h26.4L223.7,8z"/>
<path class="st0" d="M327.6,57V14.3l-18.7,44.3c-3.2,7.3-3.1,7.4-8.8,7.4h-5.6l-21.9-51.7V66c-11.1,0-11.1,0-11.1-8.9V0.6h1h5.1
	c10.3,0,10.2-0.1,13.8,8.3l15.7,36.9c0.8,1.9,3.1,8.4,3.1,8.4s2.3-6.5,3.1-8.4L319,8.9c3.4-8.1,3.3-8.3,12.4-8.3h7.5V66
	C327.6,66,327.6,66,327.6,57z"/>
<path class="st0" d="M350.8,56.7V0.8C362,0.8,362,0.8,362,9V47v19C350.8,66,350.8,66,350.8,56.7z M385.6,59.2l-21.3-23.7
	c-1.8-1.9-1.7-4.7,0-6.5l25.6-28.3H405l-30.9,31.1L406.7,66C391.8,66,391.8,66.2,385.6,59.2z"/>
<path class="st0" d="M434.8,66.7c-25.1,0-31.1-15.5-31.1-33.4c0-17.8,6.1-33.4,31.1-33.4c25.2,0,31.1,15.5,31.1,33.5
	C465.9,51.2,460,66.7,434.8,66.7z M434.8,9.3c-19.6,0-19.6,0-19.6,24.1c0,13.4,3.4,24.1,19.6,24.1c19.7,0,19.7,0,19.7-23.9
	C454.6,20,451.2,9.3,434.8,9.3z"/>
<path class="st0" d="M548.4,57c-2.7,8.9-2.7,8.9-9.8,8.9h-6.4l-15.9-53L503.2,57c-2.7,8.9-2.4,8.9-11.5,8.9H487L467.2,0.6
	c11.8,0,11.8-0.1,14.3,8.8L493.9,54l16-53.4c13.4,0,13.2,0,15.9,8.8L539.2,54l12.5-44.6c2.4-8.8,2.5-8.8,13.8-8.8L548.4,57z"/>
</svg>
