<svg width="365" height="63" viewBox="0 0 365 63" fill="none" xmlns="http://www.w3.org/2000/svg">
<path d="M42.4701 9.52968C42.7631 9.82264 43.2389 9.82264 43.5318 9.52968L48.0318 5.02968C48.3248 4.73671 48.3248 4.26093 48.0318 3.96796C47.7389 3.67499 47.2631 3.67499 46.9701 3.96796L42.9998 7.93827L39.0295 3.9703C38.7365 3.67733 38.2607 3.67733 37.9678 3.9703C37.6748 4.26327 37.6748 4.73905 37.9678 5.03202L42.4678 9.53202L42.4701 9.52968Z" fill="white"/>
<path d="M6.89062 56.7598H8.59961C8.54492 57.4115 8.36263 57.9925 8.05273 58.5029C7.74284 59.0088 7.30762 59.4076 6.74707 59.6992C6.18652 59.9909 5.50521 60.1367 4.70312 60.1367C4.08789 60.1367 3.53418 60.0273 3.04199 59.8086C2.5498 59.5853 2.12826 59.2708 1.77734 58.8652C1.42643 58.4551 1.15755 57.9606 0.970703 57.3818C0.788411 56.8031 0.697266 56.1559 0.697266 55.4404V54.6133C0.697266 53.8978 0.79069 53.2507 0.977539 52.6719C1.16895 52.0931 1.44238 51.5986 1.79785 51.1885C2.15332 50.7738 2.57943 50.457 3.07617 50.2383C3.57747 50.0195 4.1403 49.9102 4.76465 49.9102C5.55762 49.9102 6.22754 50.056 6.77441 50.3477C7.32129 50.6393 7.74512 51.0426 8.0459 51.5576C8.35124 52.0726 8.53809 52.6628 8.60645 53.3281H6.89746C6.85189 52.8997 6.75163 52.5329 6.59668 52.2275C6.44629 51.9222 6.22298 51.6898 5.92676 51.5303C5.63053 51.3662 5.24316 51.2842 4.76465 51.2842C4.37272 51.2842 4.03092 51.3571 3.73926 51.5029C3.44759 51.6488 3.20378 51.863 3.00781 52.1455C2.81185 52.4281 2.66374 52.7767 2.56348 53.1914C2.46777 53.6016 2.41992 54.071 2.41992 54.5996V55.4404C2.41992 55.9417 2.46322 56.3975 2.5498 56.8076C2.64095 57.2132 2.77767 57.5618 2.95996 57.8535C3.14681 58.1452 3.38379 58.3708 3.6709 58.5303C3.95801 58.6898 4.30208 58.7695 4.70312 58.7695C5.19076 58.7695 5.58496 58.6921 5.88574 58.5371C6.19108 58.3822 6.42122 58.1566 6.57617 57.8604C6.73568 57.5596 6.84049 57.1927 6.89062 56.7598ZM11.6484 54.0117V60H10.001V52.6035H11.5732L11.6484 54.0117ZM13.9111 52.5557L13.8975 54.0869C13.7972 54.0687 13.6878 54.055 13.5693 54.0459C13.4554 54.0368 13.3415 54.0322 13.2275 54.0322C12.945 54.0322 12.6966 54.0732 12.4824 54.1553C12.2682 54.2327 12.0882 54.3467 11.9424 54.4971C11.8011 54.6429 11.6917 54.8206 11.6143 55.0303C11.5368 55.2399 11.4912 55.4746 11.4775 55.7344L11.1016 55.7617C11.1016 55.2969 11.1471 54.8662 11.2383 54.4697C11.3294 54.0732 11.4661 53.7246 11.6484 53.4238C11.8353 53.123 12.0677 52.8883 12.3457 52.7197C12.6283 52.5511 12.9541 52.4668 13.3232 52.4668C13.4235 52.4668 13.5306 52.4759 13.6445 52.4941C13.763 52.5124 13.8519 52.5329 13.9111 52.5557ZM18.0674 60.1367C17.5205 60.1367 17.026 60.0479 16.584 59.8701C16.1465 59.6878 15.7728 59.4349 15.4629 59.1113C15.1576 58.7878 14.9229 58.4072 14.7588 57.9697C14.5947 57.5322 14.5127 57.0605 14.5127 56.5547V56.2812C14.5127 55.7025 14.597 55.1784 14.7656 54.709C14.9342 54.2396 15.1689 53.8385 15.4697 53.5059C15.7705 53.1686 16.126 52.9111 16.5361 52.7334C16.9463 52.5557 17.3906 52.4668 17.8691 52.4668C18.3978 52.4668 18.8604 52.5557 19.2568 52.7334C19.6533 52.9111 19.9814 53.1618 20.2412 53.4854C20.5055 53.8044 20.7015 54.1849 20.8291 54.627C20.9613 55.069 21.0273 55.5566 21.0273 56.0898V56.7939H15.3125V55.6113H19.4004V55.4814C19.3913 55.1852 19.332 54.9072 19.2227 54.6475C19.1178 54.3877 18.9561 54.1781 18.7373 54.0186C18.5186 53.859 18.2269 53.7793 17.8623 53.7793C17.5889 53.7793 17.3451 53.8385 17.1309 53.957C16.9212 54.071 16.7458 54.2373 16.6045 54.4561C16.4632 54.6748 16.3538 54.9391 16.2764 55.249C16.2035 55.5544 16.167 55.8984 16.167 56.2812V56.5547C16.167 56.8783 16.2103 57.179 16.2969 57.457C16.388 57.7305 16.5202 57.9697 16.6934 58.1748C16.8665 58.3799 17.0762 58.5417 17.3223 58.6602C17.5684 58.7741 17.8486 58.8311 18.1631 58.8311C18.5596 58.8311 18.9128 58.7513 19.2227 58.5918C19.5326 58.4323 19.8014 58.2067 20.0293 57.915L20.8975 58.7559C20.738 58.9883 20.5306 59.2116 20.2754 59.4258C20.0202 59.6354 19.708 59.8063 19.3389 59.9385C18.9743 60.0706 18.5505 60.1367 18.0674 60.1367ZM26.4824 58.5166V54.9893C26.4824 54.7249 26.4346 54.4971 26.3389 54.3057C26.2432 54.1143 26.0973 53.9661 25.9014 53.8613C25.71 53.7565 25.4684 53.7041 25.1768 53.7041C24.9079 53.7041 24.6755 53.7497 24.4795 53.8408C24.2835 53.932 24.1309 54.055 24.0215 54.21C23.9121 54.3649 23.8574 54.5404 23.8574 54.7363H22.2168C22.2168 54.4447 22.2874 54.1621 22.4287 53.8887C22.57 53.6152 22.7751 53.3714 23.0439 53.1572C23.3128 52.943 23.6341 52.7744 24.0078 52.6514C24.3815 52.5283 24.8008 52.4668 25.2656 52.4668C25.8216 52.4668 26.3138 52.5602 26.7422 52.7471C27.1751 52.9339 27.5146 53.2165 27.7607 53.5947C28.0114 53.9684 28.1367 54.4378 28.1367 55.0029V58.291C28.1367 58.6283 28.1595 58.9313 28.2051 59.2002C28.2552 59.4645 28.3258 59.6947 28.417 59.8906V60H26.7285C26.651 59.8223 26.5895 59.5967 26.5439 59.3232C26.5029 59.0452 26.4824 58.7764 26.4824 58.5166ZM26.7217 55.502L26.7354 56.5205H25.5527C25.2474 56.5205 24.9785 56.5501 24.7461 56.6094C24.5137 56.6641 24.32 56.7461 24.165 56.8555C24.0101 56.9648 23.8939 57.097 23.8164 57.252C23.7389 57.4069 23.7002 57.5824 23.7002 57.7783C23.7002 57.9743 23.7458 58.1543 23.8369 58.3184C23.9281 58.4779 24.0602 58.6032 24.2334 58.6943C24.4111 58.7855 24.6253 58.8311 24.876 58.8311C25.2132 58.8311 25.5072 58.7627 25.7578 58.626C26.013 58.4847 26.2135 58.3138 26.3594 58.1133C26.5052 57.9082 26.5827 57.7145 26.5918 57.5322L27.125 58.2637C27.0703 58.4505 26.9769 58.651 26.8447 58.8652C26.7126 59.0794 26.5394 59.2845 26.3252 59.4805C26.1156 59.6719 25.8626 59.8291 25.5664 59.9521C25.2747 60.0752 24.9375 60.1367 24.5547 60.1367C24.0716 60.1367 23.641 60.041 23.2627 59.8496C22.8844 59.6536 22.5882 59.3916 22.374 59.0635C22.1598 58.7308 22.0527 58.3548 22.0527 57.9355C22.0527 57.5436 22.1257 57.1973 22.2715 56.8965C22.4219 56.5911 22.6406 56.3359 22.9277 56.1309C23.2194 55.9258 23.5749 55.7708 23.9941 55.666C24.4134 55.5566 24.8919 55.502 25.4297 55.502H26.7217ZM33.25 52.6035V53.8066H29.0801V52.6035H33.25ZM30.2832 50.792H31.9307V57.9561C31.9307 58.1839 31.9626 58.3594 32.0264 58.4824C32.0947 58.6009 32.1882 58.6807 32.3066 58.7217C32.4251 58.7627 32.5641 58.7832 32.7236 58.7832C32.8376 58.7832 32.9469 58.7764 33.0518 58.7627C33.1566 58.749 33.2409 58.7354 33.3047 58.7217L33.3115 59.9795C33.1748 60.0205 33.0153 60.057 32.833 60.0889C32.6553 60.1208 32.4502 60.1367 32.2178 60.1367C31.8395 60.1367 31.5046 60.0706 31.2129 59.9385C30.9212 59.8018 30.6934 59.5807 30.5293 59.2754C30.3652 58.9701 30.2832 58.5645 30.2832 58.0586V50.792ZM37.7822 60.1367C37.2354 60.1367 36.7409 60.0479 36.2988 59.8701C35.8613 59.6878 35.4876 59.4349 35.1777 59.1113C34.8724 58.7878 34.6377 58.4072 34.4736 57.9697C34.3096 57.5322 34.2275 57.0605 34.2275 56.5547V56.2812C34.2275 55.7025 34.3118 55.1784 34.4805 54.709C34.6491 54.2396 34.8838 53.8385 35.1846 53.5059C35.4854 53.1686 35.8408 52.9111 36.251 52.7334C36.6611 52.5557 37.1055 52.4668 37.584 52.4668C38.1126 52.4668 38.5752 52.5557 38.9717 52.7334C39.3682 52.9111 39.6963 53.1618 39.9561 53.4854C40.2204 53.8044 40.4163 54.1849 40.5439 54.627C40.6761 55.069 40.7422 55.5566 40.7422 56.0898V56.7939H35.0273V55.6113H39.1152V55.4814C39.1061 55.1852 39.0469 54.9072 38.9375 54.6475C38.8327 54.3877 38.6709 54.1781 38.4521 54.0186C38.2334 53.859 37.9417 53.7793 37.5771 53.7793C37.3037 53.7793 37.0599 53.8385 36.8457 53.957C36.6361 54.071 36.4606 54.2373 36.3193 54.4561C36.1781 54.6748 36.0687 54.9391 35.9912 55.249C35.9183 55.5544 35.8818 55.8984 35.8818 56.2812V56.5547C35.8818 56.8783 35.9251 57.179 36.0117 57.457C36.1029 57.7305 36.235 57.9697 36.4082 58.1748C36.5814 58.3799 36.791 58.5417 37.0371 58.6602C37.2832 58.7741 37.5635 58.8311 37.8779 58.8311C38.2744 58.8311 38.6276 58.7513 38.9375 58.5918C39.2474 58.4323 39.5163 58.2067 39.7441 57.915L40.6123 58.7559C40.4528 58.9883 40.2454 59.2116 39.9902 59.4258C39.735 59.6354 39.4229 59.8063 39.0537 59.9385C38.6891 60.0706 38.2653 60.1367 37.7822 60.1367ZM47.168 54.0117V60H45.5205V52.6035H47.0928L47.168 54.0117ZM49.4307 52.5557L49.417 54.0869C49.3167 54.0687 49.2074 54.055 49.0889 54.0459C48.9749 54.0368 48.861 54.0322 48.7471 54.0322C48.4645 54.0322 48.2161 54.0732 48.002 54.1553C47.7878 54.2327 47.6077 54.3467 47.4619 54.4971C47.3206 54.6429 47.2113 54.8206 47.1338 55.0303C47.0563 55.2399 47.0107 55.4746 46.9971 55.7344L46.6211 55.7617C46.6211 55.2969 46.6667 54.8662 46.7578 54.4697C46.849 54.0732 46.9857 53.7246 47.168 53.4238C47.3548 53.123 47.5872 52.8883 47.8652 52.7197C48.1478 52.5511 48.4736 52.4668 48.8428 52.4668C48.943 52.4668 49.0501 52.4759 49.1641 52.4941C49.2826 52.5124 49.3714 52.5329 49.4307 52.5557ZM53.5869 60.1367C53.04 60.1367 52.5456 60.0479 52.1035 59.8701C51.666 59.6878 51.2923 59.4349 50.9824 59.1113C50.6771 58.7878 50.4424 58.4072 50.2783 57.9697C50.1143 57.5322 50.0322 57.0605 50.0322 56.5547V56.2812C50.0322 55.7025 50.1165 55.1784 50.2852 54.709C50.4538 54.2396 50.6885 53.8385 50.9893 53.5059C51.29 53.1686 51.6455 52.9111 52.0557 52.7334C52.4658 52.5557 52.9102 52.4668 53.3887 52.4668C53.9173 52.4668 54.3799 52.5557 54.7764 52.7334C55.1729 52.9111 55.501 53.1618 55.7607 53.4854C56.0251 53.8044 56.221 54.1849 56.3486 54.627C56.4808 55.069 56.5469 55.5566 56.5469 56.0898V56.7939H50.832V55.6113H54.9199V55.4814C54.9108 55.1852 54.8516 54.9072 54.7422 54.6475C54.6374 54.3877 54.4756 54.1781 54.2568 54.0186C54.0381 53.859 53.7464 53.7793 53.3818 53.7793C53.1084 53.7793 52.8646 53.8385 52.6504 53.957C52.4408 54.071 52.2653 54.2373 52.124 54.4561C51.9827 54.6748 51.8734 54.9391 51.7959 55.249C51.723 55.5544 51.6865 55.8984 51.6865 56.2812V56.5547C51.6865 56.8783 51.7298 57.179 51.8164 57.457C51.9076 57.7305 52.0397 57.9697 52.2129 58.1748C52.3861 58.3799 52.5957 58.5417 52.8418 58.6602C53.0879 58.7741 53.3682 58.8311 53.6826 58.8311C54.0791 58.8311 54.4323 58.7513 54.7422 58.5918C55.0521 58.4323 55.321 58.2067 55.5488 57.915L56.417 58.7559C56.2575 58.9883 56.0501 59.2116 55.7949 59.4258C55.5397 59.6354 55.2275 59.8063 54.8584 59.9385C54.4938 60.0706 54.07 60.1367 53.5869 60.1367ZM60.1426 58.6943L61.9541 52.6035H63.6631L61.0928 60H60.0264L60.1426 58.6943ZM58.7549 52.6035L60.6006 58.7217L60.6895 60H59.623L57.0391 52.6035H58.7549ZM66.4453 52.6035V60H64.791V52.6035H66.4453ZM64.6816 50.6621C64.6816 50.4115 64.7637 50.2041 64.9277 50.04C65.0964 49.8714 65.3288 49.7871 65.625 49.7871C65.9167 49.7871 66.1468 49.8714 66.3154 50.04C66.484 50.2041 66.5684 50.4115 66.5684 50.6621C66.5684 50.9082 66.484 51.1133 66.3154 51.2773C66.1468 51.4414 65.9167 51.5234 65.625 51.5234C65.3288 51.5234 65.0964 51.4414 64.9277 51.2773C64.7637 51.1133 64.6816 50.9082 64.6816 50.6621ZM71.5107 60.1367C70.9639 60.1367 70.4694 60.0479 70.0273 59.8701C69.5898 59.6878 69.2161 59.4349 68.9062 59.1113C68.6009 58.7878 68.3662 58.4072 68.2021 57.9697C68.0381 57.5322 67.9561 57.0605 67.9561 56.5547V56.2812C67.9561 55.7025 68.0404 55.1784 68.209 54.709C68.3776 54.2396 68.6123 53.8385 68.9131 53.5059C69.2139 53.1686 69.5693 52.9111 69.9795 52.7334C70.3896 52.5557 70.834 52.4668 71.3125 52.4668C71.8411 52.4668 72.3037 52.5557 72.7002 52.7334C73.0967 52.9111 73.4248 53.1618 73.6846 53.4854C73.9489 53.8044 74.1449 54.1849 74.2725 54.627C74.4046 55.069 74.4707 55.5566 74.4707 56.0898V56.7939H68.7559V55.6113H72.8438V55.4814C72.8346 55.1852 72.7754 54.9072 72.666 54.6475C72.5612 54.3877 72.3994 54.1781 72.1807 54.0186C71.9619 53.859 71.6702 53.7793 71.3057 53.7793C71.0322 53.7793 70.7884 53.8385 70.5742 53.957C70.3646 54.071 70.1891 54.2373 70.0479 54.4561C69.9066 54.6748 69.7972 54.9391 69.7197 55.249C69.6468 55.5544 69.6104 55.8984 69.6104 56.2812V56.5547C69.6104 56.8783 69.6536 57.179 69.7402 57.457C69.8314 57.7305 69.9635 57.9697 70.1367 58.1748C70.3099 58.3799 70.5195 58.5417 70.7656 58.6602C71.0117 58.7741 71.292 58.8311 71.6064 58.8311C72.0029 58.8311 72.3561 58.7513 72.666 58.5918C72.9759 58.4323 73.2448 58.2067 73.4727 57.915L74.3408 58.7559C74.1813 58.9883 73.974 59.2116 73.7188 59.4258C73.4635 59.6354 73.1514 59.8063 72.7822 59.9385C72.4176 60.0706 71.9938 60.1367 71.5107 60.1367ZM77.7656 58.3594L79.4746 52.6035H80.5273L80.2402 54.3262L78.5176 60H77.5742L77.7656 58.3594ZM76.7607 52.6035L78.0938 58.3867L78.2031 60H77.1504L75.1475 52.6035H76.7607ZM82.127 58.3184L83.4189 52.6035H85.0254L83.0293 60H81.9766L82.127 58.3184ZM80.7051 52.6035L82.3936 58.291L82.6055 60H81.6621L79.9189 54.3193L79.6318 52.6035H80.7051Z" fill="white"/>
<path d="M332.906 56.2227H334.371C334.324 56.7812 334.168 57.2793 333.902 57.7168C333.637 58.1504 333.264 58.4922 332.783 58.7422C332.303 58.9922 331.719 59.1172 331.031 59.1172C330.504 59.1172 330.029 59.0234 329.607 58.8359C329.186 58.6445 328.824 58.375 328.523 58.0273C328.223 57.6758 327.992 57.252 327.832 56.7559C327.676 56.2598 327.598 55.7051 327.598 55.0918V54.3828C327.598 53.7695 327.678 53.2148 327.838 52.7188C328.002 52.2227 328.236 51.7988 328.541 51.4473C328.846 51.0918 329.211 50.8203 329.637 50.6328C330.066 50.4453 330.549 50.3516 331.084 50.3516C331.764 50.3516 332.338 50.4766 332.807 50.7266C333.275 50.9766 333.639 51.3223 333.896 51.7637C334.158 52.2051 334.318 52.7109 334.377 53.2812H332.912C332.873 52.9141 332.787 52.5996 332.654 52.3379C332.525 52.0762 332.334 51.877 332.08 51.7402C331.826 51.5996 331.494 51.5293 331.084 51.5293C330.748 51.5293 330.455 51.5918 330.205 51.7168C329.955 51.8418 329.746 52.0254 329.578 52.2676C329.41 52.5098 329.283 52.8086 329.197 53.1641C329.115 53.5156 329.074 53.918 329.074 54.3711V55.0918C329.074 55.5215 329.111 55.9121 329.186 56.2637C329.264 56.6113 329.381 56.9102 329.537 57.1602C329.697 57.4102 329.9 57.6035 330.146 57.7402C330.393 57.877 330.688 57.9453 331.031 57.9453C331.449 57.9453 331.787 57.8789 332.045 57.7461C332.307 57.6133 332.504 57.4199 332.637 57.166C332.773 56.9082 332.863 56.5938 332.906 56.2227ZM337.078 50V59H335.66V50H337.078ZM338.355 55.9004V55.7656C338.355 55.3086 338.422 54.8848 338.555 54.4941C338.688 54.0996 338.879 53.7578 339.129 53.4688C339.383 53.1758 339.691 52.9492 340.055 52.7891C340.422 52.625 340.836 52.543 341.297 52.543C341.762 52.543 342.176 52.625 342.539 52.7891C342.906 52.9492 343.217 53.1758 343.471 53.4688C343.725 53.7578 343.918 54.0996 344.051 54.4941C344.184 54.8848 344.25 55.3086 344.25 55.7656V55.9004C344.25 56.3574 344.184 56.7812 344.051 57.1719C343.918 57.5625 343.725 57.9043 343.471 58.1973C343.217 58.4863 342.908 58.7129 342.545 58.877C342.182 59.0371 341.77 59.1172 341.309 59.1172C340.844 59.1172 340.428 59.0371 340.061 58.877C339.697 58.7129 339.389 58.4863 339.135 58.1973C338.881 57.9043 338.688 57.5625 338.555 57.1719C338.422 56.7812 338.355 56.3574 338.355 55.9004ZM339.768 55.7656V55.9004C339.768 56.1855 339.797 56.4551 339.855 56.709C339.914 56.9629 340.006 57.1855 340.131 57.377C340.256 57.5684 340.416 57.7188 340.611 57.8281C340.807 57.9375 341.039 57.9922 341.309 57.9922C341.57 57.9922 341.797 57.9375 341.988 57.8281C342.184 57.7188 342.344 57.5684 342.469 57.377C342.594 57.1855 342.686 56.9629 342.744 56.709C342.807 56.4551 342.838 56.1855 342.838 55.9004V55.7656C342.838 55.4844 342.807 55.2188 342.744 54.9688C342.686 54.7148 342.592 54.4902 342.463 54.2949C342.338 54.0996 342.178 53.9473 341.982 53.8379C341.791 53.7246 341.562 53.668 341.297 53.668C341.031 53.668 340.801 53.7246 340.605 53.8379C340.414 53.9473 340.256 54.0996 340.131 54.2949C340.006 54.4902 339.914 54.7148 339.855 54.9688C339.797 55.2188 339.768 55.4844 339.768 55.7656ZM348.99 57.2832C348.99 57.1426 348.955 57.0156 348.885 56.9023C348.814 56.7852 348.68 56.6797 348.48 56.5859C348.285 56.4922 347.996 56.4062 347.613 56.3281C347.277 56.2539 346.969 56.166 346.688 56.0645C346.41 55.959 346.172 55.832 345.973 55.6836C345.773 55.5352 345.619 55.3594 345.51 55.1562C345.4 54.9531 345.346 54.7188 345.346 54.4531C345.346 54.1953 345.402 53.9512 345.516 53.7207C345.629 53.4902 345.791 53.2871 346.002 53.1113C346.213 52.9355 346.469 52.7969 346.77 52.6953C347.074 52.5938 347.414 52.543 347.789 52.543C348.32 52.543 348.775 52.6328 349.154 52.8125C349.537 52.9883 349.83 53.2285 350.033 53.5332C350.236 53.834 350.338 54.1738 350.338 54.5527H348.926C348.926 54.3848 348.883 54.2285 348.797 54.084C348.715 53.9355 348.59 53.8164 348.422 53.7266C348.254 53.6328 348.043 53.5859 347.789 53.5859C347.547 53.5859 347.346 53.625 347.186 53.7031C347.029 53.7773 346.912 53.875 346.834 53.9961C346.76 54.1172 346.723 54.25 346.723 54.3945C346.723 54.5 346.742 54.5957 346.781 54.6816C346.824 54.7637 346.895 54.8398 346.992 54.9102C347.09 54.9766 347.223 55.0391 347.391 55.0977C347.562 55.1562 347.777 55.2129 348.035 55.2676C348.52 55.3691 348.936 55.5 349.283 55.6602C349.635 55.8164 349.904 56.0195 350.092 56.2695C350.279 56.5156 350.373 56.8281 350.373 57.207C350.373 57.4883 350.312 57.7461 350.191 57.9805C350.074 58.2109 349.902 58.4121 349.676 58.584C349.449 58.752 349.178 58.8828 348.861 58.9766C348.549 59.0703 348.197 59.1172 347.807 59.1172C347.232 59.1172 346.746 59.0156 346.348 58.8125C345.949 58.6055 345.646 58.3418 345.439 58.0215C345.236 57.6973 345.135 57.3613 345.135 57.0137H346.5C346.516 57.2754 346.588 57.4844 346.717 57.6406C346.85 57.793 347.014 57.9043 347.209 57.9746C347.408 58.041 347.613 58.0742 347.824 58.0742C348.078 58.0742 348.291 58.041 348.463 57.9746C348.635 57.9043 348.766 57.8105 348.855 57.6934C348.945 57.5723 348.99 57.4355 348.99 57.2832ZM354.404 59.1172C353.936 59.1172 353.512 59.041 353.133 58.8887C352.758 58.7324 352.438 58.5156 352.172 58.2383C351.91 57.9609 351.709 57.6348 351.568 57.2598C351.428 56.8848 351.357 56.4805 351.357 56.0469V55.8125C351.357 55.3164 351.43 54.8672 351.574 54.4648C351.719 54.0625 351.92 53.7188 352.178 53.4336C352.436 53.1445 352.74 52.9238 353.092 52.7715C353.443 52.6191 353.824 52.543 354.234 52.543C354.688 52.543 355.084 52.6191 355.424 52.7715C355.764 52.9238 356.045 53.1387 356.268 53.416C356.494 53.6895 356.662 54.0156 356.771 54.3945C356.885 54.7734 356.941 55.1914 356.941 55.6484V56.252H352.043V55.2383H355.547V55.127C355.539 54.873 355.488 54.6348 355.395 54.4121C355.305 54.1895 355.166 54.0098 354.979 53.873C354.791 53.7363 354.541 53.668 354.229 53.668C353.994 53.668 353.785 53.7188 353.602 53.8203C353.422 53.918 353.271 54.0605 353.15 54.248C353.029 54.4355 352.936 54.6621 352.869 54.9277C352.807 55.1895 352.775 55.4844 352.775 55.8125V56.0469C352.775 56.3242 352.812 56.582 352.887 56.8203C352.965 57.0547 353.078 57.2598 353.227 57.4355C353.375 57.6113 353.555 57.75 353.766 57.8516C353.977 57.9492 354.217 57.998 354.486 57.998C354.826 57.998 355.129 57.9297 355.395 57.793C355.66 57.6562 355.891 57.4629 356.086 57.2129L356.83 57.9336C356.693 58.1328 356.516 58.3242 356.297 58.5078C356.078 58.6875 355.811 58.834 355.494 58.9473C355.182 59.0605 354.818 59.1172 354.404 59.1172ZM361.91 57.6875V50H363.328V59H362.045L361.91 57.6875ZM357.785 55.9004V55.7773C357.785 55.2969 357.842 54.8594 357.955 54.4648C358.068 54.0664 358.232 53.7246 358.447 53.4395C358.662 53.1504 358.924 52.9297 359.232 52.7773C359.541 52.6211 359.889 52.543 360.275 52.543C360.658 52.543 360.994 52.6172 361.283 52.7656C361.572 52.9141 361.818 53.127 362.021 53.4043C362.225 53.6777 362.387 54.0059 362.508 54.3887C362.629 54.7676 362.715 55.1895 362.766 55.6543V56.0469C362.715 56.5 362.629 56.9141 362.508 57.2891C362.387 57.6641 362.225 57.9883 362.021 58.2617C361.818 58.5352 361.57 58.7461 361.277 58.8945C360.988 59.043 360.65 59.1172 360.264 59.1172C359.881 59.1172 359.535 59.0371 359.227 58.877C358.922 58.7168 358.662 58.4922 358.447 58.2031C358.232 57.9141 358.068 57.5742 357.955 57.1836C357.842 56.7891 357.785 56.3613 357.785 55.9004ZM359.197 55.7773V55.9004C359.197 56.1895 359.223 56.459 359.273 56.709C359.328 56.959 359.412 57.1797 359.525 57.3711C359.639 57.5586 359.785 57.707 359.965 57.8164C360.148 57.9219 360.367 57.9746 360.621 57.9746C360.941 57.9746 361.205 57.9043 361.412 57.7637C361.619 57.623 361.781 57.4336 361.898 57.1953C362.02 56.9531 362.102 56.6836 362.145 56.3867V55.3262C362.121 55.0957 362.072 54.8809 361.998 54.6816C361.928 54.4824 361.832 54.3086 361.711 54.1602C361.59 54.0078 361.439 53.8906 361.26 53.8086C361.084 53.7227 360.875 53.6797 360.633 53.6797C360.375 53.6797 360.156 53.7344 359.977 53.8438C359.797 53.9531 359.648 54.1035 359.531 54.2949C359.418 54.4863 359.334 54.709 359.279 54.9629C359.225 55.2168 359.197 55.4883 359.197 55.7773Z" fill="#687587"/>
<circle cx="43.5" cy="29.5" r="12.5" fill="white"/>
<path d="M44.625 24.2993V35H42.8599V26.394L40.2451 27.2803V25.8228L44.4126 24.2993H44.625Z" fill="#172B46"/>
<path d="M168.438 50.4688V59H166.967V50.4688H168.438ZM171.525 54.0137V59H170.113V52.6602H171.443L171.525 54.0137ZM171.273 55.5957L170.816 55.5898C170.82 55.1406 170.883 54.7285 171.004 54.3535C171.129 53.9785 171.301 53.6562 171.52 53.3867C171.742 53.1172 172.008 52.9102 172.316 52.7656C172.625 52.6172 172.969 52.543 173.348 52.543C173.652 52.543 173.928 52.5859 174.174 52.6719C174.424 52.7539 174.637 52.8887 174.812 53.0762C174.992 53.2637 175.129 53.5078 175.223 53.8086C175.316 54.1055 175.363 54.4707 175.363 54.9043V59H173.945V54.8984C173.945 54.5938 173.9 54.3535 173.811 54.1777C173.725 53.998 173.598 53.8711 173.43 53.7969C173.266 53.7188 173.061 53.6797 172.814 53.6797C172.572 53.6797 172.355 53.7305 172.164 53.832C171.973 53.9336 171.811 54.0723 171.678 54.248C171.549 54.4238 171.449 54.627 171.379 54.8574C171.309 55.0879 171.273 55.334 171.273 55.5957ZM181.211 53.8789V61.4375H179.799V52.6602H181.1L181.211 53.8789ZM185.342 55.7715V55.8945C185.342 56.3555 185.287 56.7832 185.178 57.1777C185.072 57.5684 184.914 57.9102 184.703 58.2031C184.496 58.4922 184.24 58.7168 183.936 58.877C183.631 59.0371 183.279 59.1172 182.881 59.1172C182.486 59.1172 182.141 59.0449 181.844 58.9004C181.551 58.752 181.303 58.543 181.1 58.2734C180.896 58.0039 180.732 57.6875 180.607 57.3242C180.486 56.957 180.4 56.5547 180.35 56.1172V55.6426C180.4 55.1777 180.486 54.7559 180.607 54.377C180.732 53.998 180.896 53.6719 181.1 53.3984C181.303 53.125 181.551 52.9141 181.844 52.7656C182.137 52.6172 182.479 52.543 182.869 52.543C183.268 52.543 183.621 52.6211 183.93 52.7773C184.238 52.9297 184.498 53.1484 184.709 53.4336C184.92 53.7148 185.078 54.0547 185.184 54.4531C185.289 54.8477 185.342 55.2871 185.342 55.7715ZM183.93 55.8945V55.7715C183.93 55.4785 183.902 55.207 183.848 54.957C183.793 54.7031 183.707 54.4805 183.59 54.2891C183.473 54.0977 183.322 53.9492 183.139 53.8438C182.959 53.7344 182.742 53.6797 182.488 53.6797C182.238 53.6797 182.023 53.7227 181.844 53.8086C181.664 53.8906 181.514 54.0059 181.393 54.1543C181.271 54.3027 181.178 54.4766 181.111 54.6758C181.045 54.8711 180.998 55.084 180.971 55.3145V56.4512C181.018 56.7324 181.098 56.9902 181.211 57.2246C181.324 57.459 181.484 57.6465 181.691 57.7871C181.902 57.9238 182.172 57.9922 182.5 57.9922C182.754 57.9922 182.971 57.9375 183.15 57.8281C183.33 57.7188 183.477 57.5684 183.59 57.377C183.707 57.1816 183.793 56.957 183.848 56.7031C183.902 56.4492 183.93 56.1797 183.93 55.8945ZM187.961 53.8672V59H186.549V52.6602H187.896L187.961 53.8672ZM189.9 52.6191L189.889 53.9316C189.803 53.916 189.709 53.9043 189.607 53.8965C189.51 53.8887 189.412 53.8848 189.314 53.8848C189.072 53.8848 188.859 53.9199 188.676 53.9902C188.492 54.0566 188.338 54.1543 188.213 54.2832C188.092 54.4082 187.998 54.5605 187.932 54.7402C187.865 54.9199 187.826 55.1211 187.814 55.3438L187.492 55.3672C187.492 54.9688 187.531 54.5996 187.609 54.2598C187.688 53.9199 187.805 53.6211 187.961 53.3633C188.121 53.1055 188.32 52.9043 188.559 52.7598C188.801 52.6152 189.08 52.543 189.396 52.543C189.482 52.543 189.574 52.5508 189.672 52.5664C189.773 52.582 189.85 52.5996 189.9 52.6191ZM190.363 55.9004V55.7656C190.363 55.3086 190.43 54.8848 190.562 54.4941C190.695 54.0996 190.887 53.7578 191.137 53.4688C191.391 53.1758 191.699 52.9492 192.062 52.7891C192.43 52.625 192.844 52.543 193.305 52.543C193.77 52.543 194.184 52.625 194.547 52.7891C194.914 52.9492 195.225 53.1758 195.479 53.4688C195.732 53.7578 195.926 54.0996 196.059 54.4941C196.191 54.8848 196.258 55.3086 196.258 55.7656V55.9004C196.258 56.3574 196.191 56.7812 196.059 57.1719C195.926 57.5625 195.732 57.9043 195.479 58.1973C195.225 58.4863 194.916 58.7129 194.553 58.877C194.189 59.0371 193.777 59.1172 193.316 59.1172C192.852 59.1172 192.436 59.0371 192.068 58.877C191.705 58.7129 191.396 58.4863 191.143 58.1973C190.889 57.9043 190.695 57.5625 190.562 57.1719C190.43 56.7812 190.363 56.3574 190.363 55.9004ZM191.775 55.7656V55.9004C191.775 56.1855 191.805 56.4551 191.863 56.709C191.922 56.9629 192.014 57.1855 192.139 57.377C192.264 57.5684 192.424 57.7188 192.619 57.8281C192.814 57.9375 193.047 57.9922 193.316 57.9922C193.578 57.9922 193.805 57.9375 193.996 57.8281C194.191 57.7188 194.352 57.5684 194.477 57.377C194.602 57.1855 194.693 56.9629 194.752 56.709C194.814 56.4551 194.846 56.1855 194.846 55.9004V55.7656C194.846 55.4844 194.814 55.2188 194.752 54.9688C194.693 54.7148 194.6 54.4902 194.471 54.2949C194.346 54.0996 194.186 53.9473 193.99 53.8379C193.799 53.7246 193.57 53.668 193.305 53.668C193.039 53.668 192.809 53.7246 192.613 53.8379C192.422 53.9473 192.264 54.0996 192.139 54.2949C192.014 54.4902 191.922 54.7148 191.863 54.9688C191.805 55.2188 191.775 55.4844 191.775 55.7656ZM201.502 52.6602H202.785V58.8242C202.785 59.3945 202.664 59.8789 202.422 60.2773C202.18 60.6758 201.842 60.9785 201.408 61.1855C200.975 61.3965 200.473 61.502 199.902 61.502C199.66 61.502 199.391 61.4668 199.094 61.3965C198.801 61.3262 198.516 61.2129 198.238 61.0566C197.965 60.9043 197.736 60.7031 197.553 60.4531L198.215 59.6211C198.441 59.8906 198.691 60.0879 198.965 60.2129C199.238 60.3379 199.525 60.4004 199.826 60.4004C200.15 60.4004 200.426 60.3398 200.652 60.2188C200.883 60.1016 201.061 59.9277 201.186 59.6973C201.311 59.4668 201.373 59.1855 201.373 58.8535V54.0957L201.502 52.6602ZM197.195 55.9004V55.7773C197.195 55.2969 197.254 54.8594 197.371 54.4648C197.488 54.0664 197.656 53.7246 197.875 53.4395C198.094 53.1504 198.359 52.9297 198.672 52.7773C198.984 52.6211 199.338 52.543 199.732 52.543C200.143 52.543 200.492 52.6172 200.781 52.7656C201.074 52.9141 201.318 53.127 201.514 53.4043C201.709 53.6777 201.861 54.0059 201.971 54.3887C202.084 54.7676 202.168 55.1895 202.223 55.6543V56.0469C202.172 56.5 202.086 56.9141 201.965 57.2891C201.844 57.6641 201.684 57.9883 201.484 58.2617C201.285 58.5352 201.039 58.7461 200.746 58.8945C200.457 59.043 200.115 59.1172 199.721 59.1172C199.334 59.1172 198.984 59.0371 198.672 58.877C198.363 58.7168 198.098 58.4922 197.875 58.2031C197.656 57.9141 197.488 57.5742 197.371 57.1836C197.254 56.7891 197.195 56.3613 197.195 55.9004ZM198.607 55.7773V55.9004C198.607 56.1895 198.635 56.459 198.689 56.709C198.748 56.959 198.836 57.1797 198.953 57.3711C199.074 57.5586 199.227 57.707 199.41 57.8164C199.598 57.9219 199.818 57.9746 200.072 57.9746C200.404 57.9746 200.676 57.9043 200.887 57.7637C201.102 57.623 201.266 57.4336 201.379 57.1953C201.496 56.9531 201.578 56.6836 201.625 56.3867V55.3262C201.602 55.0957 201.553 54.8809 201.479 54.6816C201.408 54.4824 201.312 54.3086 201.191 54.1602C201.07 54.0078 200.918 53.8906 200.734 53.8086C200.551 53.7227 200.334 53.6797 200.084 53.6797C199.83 53.6797 199.609 53.7344 199.422 53.8438C199.234 53.9531 199.08 54.1035 198.959 54.2949C198.842 54.4863 198.754 54.709 198.695 54.9629C198.637 55.2168 198.607 55.4883 198.607 55.7773ZM205.668 53.8672V59H204.256V52.6602H205.604L205.668 53.8672ZM207.607 52.6191L207.596 53.9316C207.51 53.916 207.416 53.9043 207.314 53.8965C207.217 53.8887 207.119 53.8848 207.021 53.8848C206.779 53.8848 206.566 53.9199 206.383 53.9902C206.199 54.0566 206.045 54.1543 205.92 54.2832C205.799 54.4082 205.705 54.5605 205.639 54.7402C205.572 54.9199 205.533 55.1211 205.521 55.3438L205.199 55.3672C205.199 54.9688 205.238 54.5996 205.316 54.2598C205.395 53.9199 205.512 53.6211 205.668 53.3633C205.828 53.1055 206.027 52.9043 206.266 52.7598C206.508 52.6152 206.787 52.543 207.104 52.543C207.189 52.543 207.281 52.5508 207.379 52.5664C207.48 52.582 207.557 52.5996 207.607 52.6191ZM211.17 59.1172C210.701 59.1172 210.277 59.041 209.898 58.8887C209.523 58.7324 209.203 58.5156 208.938 58.2383C208.676 57.9609 208.475 57.6348 208.334 57.2598C208.193 56.8848 208.123 56.4805 208.123 56.0469V55.8125C208.123 55.3164 208.195 54.8672 208.34 54.4648C208.484 54.0625 208.686 53.7188 208.943 53.4336C209.201 53.1445 209.506 52.9238 209.857 52.7715C210.209 52.6191 210.59 52.543 211 52.543C211.453 52.543 211.85 52.6191 212.189 52.7715C212.529 52.9238 212.811 53.1387 213.033 53.416C213.26 53.6895 213.428 54.0156 213.537 54.3945C213.65 54.7734 213.707 55.1914 213.707 55.6484V56.252H208.809V55.2383H212.312V55.127C212.305 54.873 212.254 54.6348 212.16 54.4121C212.07 54.1895 211.932 54.0098 211.744 53.873C211.557 53.7363 211.307 53.668 210.994 53.668C210.76 53.668 210.551 53.7188 210.367 53.8203C210.188 53.918 210.037 54.0605 209.916 54.248C209.795 54.4355 209.701 54.6621 209.635 54.9277C209.572 55.1895 209.541 55.4844 209.541 55.8125V56.0469C209.541 56.3242 209.578 56.582 209.652 56.8203C209.73 57.0547 209.844 57.2598 209.992 57.4355C210.141 57.6113 210.32 57.75 210.531 57.8516C210.742 57.9492 210.982 57.998 211.252 57.998C211.592 57.998 211.895 57.9297 212.16 57.793C212.426 57.6562 212.656 57.4629 212.852 57.2129L213.596 57.9336C213.459 58.1328 213.281 58.3242 213.062 58.5078C212.844 58.6875 212.576 58.834 212.26 58.9473C211.947 59.0605 211.584 59.1172 211.17 59.1172ZM218.365 57.2832C218.365 57.1426 218.33 57.0156 218.26 56.9023C218.189 56.7852 218.055 56.6797 217.855 56.5859C217.66 56.4922 217.371 56.4062 216.988 56.3281C216.652 56.2539 216.344 56.166 216.062 56.0645C215.785 55.959 215.547 55.832 215.348 55.6836C215.148 55.5352 214.994 55.3594 214.885 55.1562C214.775 54.9531 214.721 54.7188 214.721 54.4531C214.721 54.1953 214.777 53.9512 214.891 53.7207C215.004 53.4902 215.166 53.2871 215.377 53.1113C215.588 52.9355 215.844 52.7969 216.145 52.6953C216.449 52.5938 216.789 52.543 217.164 52.543C217.695 52.543 218.15 52.6328 218.529 52.8125C218.912 52.9883 219.205 53.2285 219.408 53.5332C219.611 53.834 219.713 54.1738 219.713 54.5527H218.301C218.301 54.3848 218.258 54.2285 218.172 54.084C218.09 53.9355 217.965 53.8164 217.797 53.7266C217.629 53.6328 217.418 53.5859 217.164 53.5859C216.922 53.5859 216.721 53.625 216.561 53.7031C216.404 53.7773 216.287 53.875 216.209 53.9961C216.135 54.1172 216.098 54.25 216.098 54.3945C216.098 54.5 216.117 54.5957 216.156 54.6816C216.199 54.7637 216.27 54.8398 216.367 54.9102C216.465 54.9766 216.598 55.0391 216.766 55.0977C216.938 55.1562 217.152 55.2129 217.41 55.2676C217.895 55.3691 218.311 55.5 218.658 55.6602C219.01 55.8164 219.279 56.0195 219.467 56.2695C219.654 56.5156 219.748 56.8281 219.748 57.207C219.748 57.4883 219.688 57.7461 219.566 57.9805C219.449 58.2109 219.277 58.4121 219.051 58.584C218.824 58.752 218.553 58.8828 218.236 58.9766C217.924 59.0703 217.572 59.1172 217.182 59.1172C216.607 59.1172 216.121 59.0156 215.723 58.8125C215.324 58.6055 215.021 58.3418 214.814 58.0215C214.611 57.6973 214.51 57.3613 214.51 57.0137H215.875C215.891 57.2754 215.963 57.4844 216.092 57.6406C216.225 57.793 216.389 57.9043 216.584 57.9746C216.783 58.041 216.988 58.0742 217.199 58.0742C217.453 58.0742 217.666 58.041 217.838 57.9746C218.01 57.9043 218.141 57.8105 218.23 57.6934C218.32 57.5723 218.365 57.4355 218.365 57.2832ZM224.541 57.2832C224.541 57.1426 224.506 57.0156 224.436 56.9023C224.365 56.7852 224.23 56.6797 224.031 56.5859C223.836 56.4922 223.547 56.4062 223.164 56.3281C222.828 56.2539 222.52 56.166 222.238 56.0645C221.961 55.959 221.723 55.832 221.523 55.6836C221.324 55.5352 221.17 55.3594 221.061 55.1562C220.951 54.9531 220.896 54.7188 220.896 54.4531C220.896 54.1953 220.953 53.9512 221.066 53.7207C221.18 53.4902 221.342 53.2871 221.553 53.1113C221.764 52.9355 222.02 52.7969 222.32 52.6953C222.625 52.5938 222.965 52.543 223.34 52.543C223.871 52.543 224.326 52.6328 224.705 52.8125C225.088 52.9883 225.381 53.2285 225.584 53.5332C225.787 53.834 225.889 54.1738 225.889 54.5527H224.477C224.477 54.3848 224.434 54.2285 224.348 54.084C224.266 53.9355 224.141 53.8164 223.973 53.7266C223.805 53.6328 223.594 53.5859 223.34 53.5859C223.098 53.5859 222.896 53.625 222.736 53.7031C222.58 53.7773 222.463 53.875 222.385 53.9961C222.311 54.1172 222.273 54.25 222.273 54.3945C222.273 54.5 222.293 54.5957 222.332 54.6816C222.375 54.7637 222.445 54.8398 222.543 54.9102C222.641 54.9766 222.773 55.0391 222.941 55.0977C223.113 55.1562 223.328 55.2129 223.586 55.2676C224.07 55.3691 224.486 55.5 224.834 55.6602C225.186 55.8164 225.455 56.0195 225.643 56.2695C225.83 56.5156 225.924 56.8281 225.924 57.207C225.924 57.4883 225.863 57.7461 225.742 57.9805C225.625 58.2109 225.453 58.4121 225.227 58.584C225 58.752 224.729 58.8828 224.412 58.9766C224.1 59.0703 223.748 59.1172 223.357 59.1172C222.783 59.1172 222.297 59.0156 221.898 58.8125C221.5 58.6055 221.197 58.3418 220.99 58.0215C220.787 57.6973 220.686 57.3613 220.686 57.0137H222.051C222.066 57.2754 222.139 57.4844 222.268 57.6406C222.4 57.793 222.564 57.9043 222.76 57.9746C222.959 58.041 223.164 58.0742 223.375 58.0742C223.629 58.0742 223.842 58.041 224.014 57.9746C224.186 57.9043 224.316 57.8105 224.406 57.6934C224.496 57.5723 224.541 57.4355 224.541 57.2832Z" fill="#687587"/>
<circle cx="196" cy="29" r="9.5" stroke="white" stroke-opacity="0.35"/>
<path d="M199.363 31.875V33H193.645V32.0332L196.422 29.0039C196.727 28.6602 196.967 28.3633 197.143 28.1133C197.318 27.8633 197.441 27.6387 197.512 27.4395C197.586 27.2363 197.623 27.0391 197.623 26.8477C197.623 26.5781 197.572 26.3418 197.471 26.1387C197.373 25.9316 197.229 25.7695 197.037 25.6523C196.846 25.5312 196.613 25.4707 196.34 25.4707C196.023 25.4707 195.758 25.5391 195.543 25.6758C195.328 25.8125 195.166 26.002 195.057 26.2441C194.947 26.4824 194.893 26.7559 194.893 27.0645H193.48C193.48 26.5684 193.594 26.1152 193.82 25.7051C194.047 25.291 194.375 24.9629 194.805 24.7207C195.234 24.4746 195.752 24.3516 196.357 24.3516C196.928 24.3516 197.412 24.4473 197.811 24.6387C198.209 24.8301 198.512 25.1016 198.719 25.4531C198.93 25.8047 199.035 26.2207 199.035 26.7012C199.035 26.9668 198.992 27.2305 198.906 27.4922C198.82 27.7539 198.697 28.0156 198.537 28.2773C198.381 28.5352 198.195 28.7949 197.98 29.0566C197.766 29.3145 197.529 29.5762 197.271 29.8418L195.426 31.875H199.363Z" fill="#687587"/>
<circle cx="346" cy="29" r="9.5" stroke="white" stroke-opacity="0.35"/>
<path d="M345.303 28.0957H346.146C346.475 28.0957 346.746 28.0391 346.961 27.9258C347.18 27.8125 347.342 27.6562 347.447 27.457C347.553 27.2578 347.605 27.0293 347.605 26.7715C347.605 26.502 347.557 26.2715 347.459 26.0801C347.365 25.8848 347.221 25.7344 347.025 25.6289C346.834 25.5234 346.59 25.4707 346.293 25.4707C346.043 25.4707 345.816 25.5215 345.613 25.623C345.414 25.7207 345.256 25.8613 345.139 26.0449C345.021 26.2246 344.963 26.4395 344.963 26.6895H343.545C343.545 26.2363 343.664 25.834 343.902 25.4824C344.141 25.1309 344.465 24.8555 344.875 24.6562C345.289 24.4531 345.754 24.3516 346.27 24.3516C346.82 24.3516 347.301 24.4434 347.711 24.627C348.125 24.8066 348.447 25.0762 348.678 25.4355C348.908 25.7949 349.023 26.2402 349.023 26.7715C349.023 27.0137 348.967 27.2598 348.854 27.5098C348.74 27.7598 348.572 27.9883 348.35 28.1953C348.127 28.3984 347.85 28.5645 347.518 28.6934C347.186 28.8184 346.801 28.8809 346.363 28.8809H345.303V28.0957ZM345.303 29.1973V28.4238H346.363C346.863 28.4238 347.289 28.4824 347.641 28.5996C347.996 28.7168 348.285 28.8789 348.508 29.0859C348.73 29.2891 348.893 29.5215 348.994 29.7832C349.1 30.0449 349.152 30.3223 349.152 30.6152C349.152 31.0137 349.08 31.3691 348.936 31.6816C348.795 31.9902 348.594 32.252 348.332 32.4668C348.07 32.6816 347.764 32.8438 347.412 32.9531C347.064 33.0625 346.686 33.1172 346.275 33.1172C345.908 33.1172 345.557 33.0664 345.221 32.9648C344.885 32.8633 344.584 32.7129 344.318 32.5137C344.053 32.3105 343.842 32.0586 343.686 31.7578C343.533 31.4531 343.457 31.1016 343.457 30.7031H344.869C344.869 30.957 344.928 31.1816 345.045 31.377C345.166 31.5684 345.334 31.7188 345.549 31.8281C345.768 31.9375 346.018 31.9922 346.299 31.9922C346.596 31.9922 346.852 31.9395 347.066 31.834C347.281 31.7285 347.445 31.5723 347.559 31.3652C347.676 31.1582 347.734 30.9082 347.734 30.6152C347.734 30.2832 347.67 30.0137 347.541 29.8066C347.412 29.5996 347.229 29.4473 346.99 29.3496C346.752 29.248 346.471 29.1973 346.146 29.1973H345.303Z" fill="#3F5066"/>
<line x1="56" y1="29.5" x2="186" y2="29.5" stroke="white" stroke-opacity="0.35"/>
<line x1="206" y1="29.5" x2="336" y2="29.5" stroke="white" stroke-opacity="0.35"/>
</svg>
