<svg width="222" height="26" viewBox="0 0 222 26" fill="none" xmlns="http://www.w3.org/2000/svg">
<g clip-path="url(#clip0_154_311)">
<path d="M19.7857 23.038L18.922 20.7381H6.35968L5.57454 23.038C4.63236 25.6497 4.63236 25.7276 0 25.7276L8.47958 3.11893C9.57878 0.234375 9.61804 0.234375 12.6408 0.234375H15.5459L25.3995 25.7276C20.8064 25.7276 20.8064 25.7276 19.7857 23.038ZM12.6408 3.11893L7.49814 17.5807H17.8621L12.6408 3.11893Z" fill="white"/>
<path d="M45.3422 21.7906C43.8504 24.3243 41.3772 26.0005 37.1374 26.0005C28.1867 26.0005 25.5958 19.9585 25.5958 12.981C25.5958 6.04247 27.9119 0.234375 37.4122 0.234375H47.3443C47.3443 3.89854 47.3443 3.89854 43.8504 3.89854H37.4122C30.1104 3.89854 30.1104 3.5867 30.1104 12.981C30.1104 18.2044 31.5236 22.3753 37.4122 22.3753C44.5963 22.3753 44.5963 22.3363 44.5963 14.5402H36.2737C33.6435 14.5402 33.565 14.5402 33.565 10.915H48.9146V25.7276C45.3422 25.7276 45.3422 25.7276 45.3422 21.7906Z" fill="white"/>
<path d="M64.9708 22.9991L58.3363 15.5148C57.4334 14.4623 57.7867 12.6692 59.3963 12.6692H62.4976C68.3862 12.6692 68.3862 12.6692 68.3862 8.18648C68.3862 6.19848 67.6403 3.85964 62.3798 3.85964H57.4727V15.7097V25.7277C53.0759 25.7277 53.0759 25.7277 53.0759 22.1025V3.85964C53.0759 0.273438 53.0759 0.273438 57.4727 0.273438H62.1836C71.8409 0.273438 72.8223 4.87314 72.8223 8.1475C72.8223 14.3844 68.2684 15.9046 63.3613 15.9046L73.7252 25.7277C67.7581 25.7277 67.6403 26.0006 64.9708 22.9991Z" fill="white"/>
<path d="M94.9634 23.038L94.0997 20.7381H81.5374L80.7522 23.038C79.81 25.6497 79.81 25.7276 75.1384 25.7276L83.6573 3.11893C84.7565 0.234375 84.7957 0.234375 87.8185 0.234375H90.7236L100.577 25.7276C95.9841 25.7276 95.9841 25.7276 94.9634 23.038ZM87.8185 3.11893L82.6758 17.5807H93.0398L87.8185 3.11893Z" fill="white"/>
<path d="M128.607 22.2194V5.57473L121.266 22.8431C120.01 25.6887 120.049 25.7277 117.811 25.7277H115.613L107.015 5.57473V25.7277C102.658 25.7277 102.658 25.7277 102.658 22.2584V0.234396H103.05H105.053C109.096 0.234396 109.057 0.195416 110.47 3.46978L116.633 17.8536C116.947 18.5942 117.85 21.128 117.85 21.128C117.85 21.128 118.753 18.5942 119.067 17.8536L125.231 3.46978C126.566 0.312357 126.526 0.234396 130.099 0.234396H133.043V25.7277C128.607 25.7277 128.607 25.7277 128.607 22.2194Z" fill="white"/>
<path d="M137.715 22.1025V0.312418C142.111 0.312418 142.111 0.312418 142.111 3.50882V18.3214V25.7277C137.715 25.7277 137.715 25.7277 137.715 22.1025ZM151.376 23.077L143.014 13.8387C142.308 13.098 142.347 12.0066 143.014 11.3049L153.064 0.273438H158.992L146.862 12.3964L159.659 25.7277C153.81 25.7277 153.81 25.8057 151.376 23.077Z" fill="white"/>
<path d="M170.691 25.9999C160.837 25.9999 158.482 19.9579 158.482 12.9804C158.482 6.0419 160.876 -0.0390625 170.691 -0.0390625C180.584 -0.0390625 182.9 6.00292 182.9 13.0194C182.9 19.9579 180.584 25.9999 170.691 25.9999ZM170.691 3.62511C162.996 3.62511 162.996 3.62511 162.996 13.0194C162.996 18.2428 164.331 22.4137 170.691 22.4137C178.424 22.4137 178.424 22.4137 178.424 13.0974C178.464 7.79602 177.129 3.62511 170.691 3.62511Z" fill="white"/>
<path d="M215.287 22.2194C214.227 25.6887 214.227 25.6887 211.44 25.6887H208.927L202.685 5.029L197.543 22.2194C196.483 25.6887 196.601 25.6887 193.028 25.6887H191.183L183.41 0.234394C188.042 0.234394 188.042 0.195413 189.024 3.66468L193.892 21.05L200.173 0.234394C205.433 0.234394 205.355 0.234394 206.415 3.66468L211.675 21.05L216.583 3.66468C217.525 0.234394 217.564 0.234394 222 0.234394L215.287 22.2194Z" fill="white"/>
</g>
<defs>
<clipPath id="clip0_154_311">
<rect width="222" height="26" fill="white"/>
</clipPath>
</defs>
</svg>
